<svg xmlns="http://www.w3.org/2000/svg" xmlns:xlink="http://www.w3.org/1999/xlink" width="1920" height="941" viewBox="0 0 1920 941">
  <defs>
    <filter id="Rectangle_88" x="343" y="237" width="933" height="431" filterUnits="userSpaceOnUse">
      <feOffset dy="5" input="SourceAlpha"/>
      <feGaussianBlur stdDeviation="10" result="blur"/>
      <feFlood flood-opacity="0.051"/>
      <feComposite operator="in" in2="blur"/>
      <feComposite in="SourceGraphic"/>
    </filter>
    <filter id="Rectangle_102" x="-14" y="41" width="422" height="858" filterUnits="userSpaceOnUse">
      <feOffset dy="5" input="SourceAlpha"/>
      <feGaussianBlur stdDeviation="10" result="blur-2"/>
      <feFlood flood-opacity="0.051"/>
      <feComposite operator="in" in2="blur-2"/>
      <feComposite in="SourceGraphic"/>
    </filter>
    <filter id="Rectangle_87" x="779" y="667" width="450" height="190" filterUnits="userSpaceOnUse">
      <feOffset dy="5" input="SourceAlpha"/>
      <feGaussianBlur stdDeviation="10" result="blur-3"/>
      <feFlood flood-opacity="0.051"/>
      <feComposite operator="in" in2="blur-3"/>
      <feComposite in="SourceGraphic"/>
    </filter>
    <filter id="Union_1" x="1330.674" y="371.801" width="490.145" height="430.199" filterUnits="userSpaceOnUse">
      <feOffset dy="5" input="SourceAlpha"/>
      <feGaussianBlur stdDeviation="10" result="blur-4"/>
      <feFlood flood-opacity="0.051"/>
      <feComposite operator="in" in2="blur-4"/>
      <feComposite in="SourceGraphic"/>
    </filter>
    <filter id="Rectangle_72" x="673" y="73" width="130" height="162" filterUnits="userSpaceOnUse">
      <feOffset dy="5" input="SourceAlpha"/>
      <feGaussianBlur stdDeviation="10" result="blur-5"/>
      <feFlood flood-opacity="0.051"/>
      <feComposite operator="in" in2="blur-5"/>
      <feComposite in="SourceGraphic"/>
    </filter>
    <filter id="Rectangle_79" x="1229" y="73" width="130" height="162" filterUnits="userSpaceOnUse">
      <feOffset dy="5" input="SourceAlpha"/>
      <feGaussianBlur stdDeviation="10" result="blur-6"/>
      <feFlood flood-opacity="0.051"/>
      <feComposite operator="in" in2="blur-6"/>
      <feComposite in="SourceGraphic"/>
    </filter>
    <filter id="bar_b" x="-0.643" y="242.165" width="319.642" height="355.671" filterUnits="userSpaceOnUse">
      <feOffset dy="5" input="SourceAlpha"/>
      <feGaussianBlur stdDeviation="10" result="blur-7"/>
      <feFlood flood-opacity="0.051"/>
      <feComposite operator="in" in2="blur-7"/>
      <feComposite in="SourceGraphic"/>
    </filter>
    <filter id="bar_a" x="1360" y="402" width="432" height="233" filterUnits="userSpaceOnUse">
      <feOffset dy="5" input="SourceAlpha"/>
      <feGaussianBlur stdDeviation="10" result="blur-8"/>
      <feFlood flood-opacity="0.051"/>
      <feComposite operator="in" in2="blur-8"/>
      <feComposite in="SourceGraphic"/>
    </filter>
    <filter id="Rectangle_94" x="483" y="234" width="197" height="194" filterUnits="userSpaceOnUse">
      <feOffset dy="5" input="SourceAlpha"/>
      <feGaussianBlur stdDeviation="10" result="blur-9"/>
      <feFlood flood-opacity="0.051"/>
      <feComposite operator="in" in2="blur-9"/>
      <feComposite in="SourceGraphic"/>
    </filter>
    <filter id="Rectangle_103" x="1230.5" y="708.192" width="149" height="148.808" filterUnits="userSpaceOnUse">
      <feOffset dy="5" input="SourceAlpha"/>
      <feGaussianBlur stdDeviation="10" result="blur-10"/>
      <feFlood flood-opacity="0.051"/>
      <feComposite operator="in" in2="blur-10"/>
      <feComposite in="SourceGraphic"/>
    </filter>
    <clipPath id="clip-seate_map_1">
      <rect width="1920" height="941"/>
    </clipPath>
  </defs>
  <g id="seate_map_1" data-name="seate map – 1" clip-path="url(#clip-seate_map_1)">
    <rect width="1920" height="941" fill="#fff"/>
    <path id="Path_18" data-name="Path 18" d="M4824,764H4563.353V390h275.292" transform="translate(-4189)" fill="none" stroke="rgba(223,223,223,0.2)" stroke-width="1"/>
    <rect id="Rectangle_17" data-name="Rectangle 17" width="1920" height="945" fill="#1d1d1b"/>
    <g transform="matrix(1, 0, 0, 1, 0, 0)" filter="url(#Rectangle_88)">
      <g id="Rectangle_88-2" data-name="Rectangle 88" transform="translate(373 262)" fill="rgba(223,223,223,0.19)" stroke="rgba(223,223,223,0)" stroke-width="1" opacity="0">
        <rect width="873" height="371" rx="14" stroke="none"/>
        <rect x="0.5" y="0.5" width="872" height="370" rx="13.5" fill="none"/>
      </g>
    </g>
    <g transform="matrix(1, 0, 0, 1, 0, 0)" filter="url(#Rectangle_102)">
      <g id="Rectangle_102-2" data-name="Rectangle 102" transform="translate(16 66)" fill="rgba(223,223,223,0.19)" stroke="rgba(223,223,223,0)" stroke-width="1" opacity="0.22">
        <rect width="362" height="798" rx="14" stroke="none"/>
        <rect x="0.5" y="0.5" width="361" height="797" rx="13.5" fill="none"/>
      </g>
    </g>
    <g transform="matrix(1, 0, 0, 1, 0, 0)" filter="url(#Rectangle_87)">
      <g id="Rectangle_87-2" data-name="Rectangle 87" transform="translate(809 692)" fill="rgba(223,223,223,0)" stroke="rgba(223,223,223,0.2)" stroke-width="1">
        <rect width="390" height="130" rx="14" stroke="none"/>
        <rect x="0.5" y="0.5" width="389" height="129" rx="13.5" fill="none"/>
      </g>
    </g>
    <g transform="matrix(1, 0, 0, 1, 0, 0)" filter="url(#Union_1)">
      <g id="Union_1-2" data-name="Union 1" transform="translate(5549.67 396.8)" fill="rgba(223,223,223,0)">
        <path d="M-3996.674,370.2a14,14,0,0,1-14-14V232.709H-4151.4l-37.6-35.838V27.757L-4151.4,0h354.943l37.6,27.757V196.871l-37.6,35.838h-137.218V356.2a14,14,0,0,1-14,14Z" stroke="none"/>
        <path d="M -3947.674072265625 369.1986389160156 C -3944.201904296875 369.1986389160156 -3940.9375 367.846435546875 -3938.48193359375 365.3910827636719 C -3936.0263671875 362.9356079101562 -3934.674072265625 359.6709899902344 -3934.674072265625 356.198486328125 L -3934.674072265625 231.7084808349609 L -3796.856201171875 231.7084808349609 L -3759.855224609375 196.4423370361328 L -3759.855224609375 28.26224517822266 L -3796.78515625 0.9999861121177673 L -4151.0703125 0.9999861121177673 L -4188 28.26222801208496 L -4188 196.4423370361328 L -4150.9990234375 231.7084808349609 L -4009.67431640625 231.7084808349609 L -4009.67431640625 356.198486328125 C -4009.67431640625 359.6711120605469 -4008.322021484375 362.9357604980469 -4005.86669921875 365.3910827636719 C -4003.411376953125 367.846435546875 -4000.146728515625 369.1986389160156 -3996.674072265625 369.1986389160156 L -3947.674072265625 369.1986389160156 M -3947.674072265625 370.1986389160156 L -3996.674072265625 370.1986389160156 C -4004.406494140625 370.1986389160156 -4010.67431640625 363.9308166503906 -4010.67431640625 356.198486328125 L -4010.67431640625 232.7084808349609 L -4151.3994140625 232.7084808349609 L -4189 196.8707122802734 L -4189 27.75748634338379 L -4151.3994140625 -1.387532574881334e-05 L -3796.4560546875 -1.387532574881334e-05 L -3758.855224609375 27.75748634338379 L -3758.855224609375 196.8707122802734 L -3796.4560546875 232.7084808349609 L -3933.674072265625 232.7084808349609 L -3933.674072265625 356.198486328125 C -3933.674072265625 363.9308166503906 -3939.94287109375 370.1986389160156 -3947.674072265625 370.1986389160156 Z" stroke="none" fill="rgba(223,223,223,0.2)"/>
      </g>
    </g>
    <g transform="matrix(1, 0, 0, 1, 0, 0)" filter="url(#Rectangle_72)">
      <g id="Rectangle_72-2" data-name="Rectangle 72" transform="translate(703 98)" fill="rgba(223,223,223,0)" stroke="rgba(223,223,223,0.2)" stroke-width="1">
        <rect width="70" height="102" rx="14" stroke="none"/>
        <rect x="0.5" y="0.5" width="69" height="101" rx="13.5" fill="none"/>
      </g>
    </g>
    <g transform="matrix(1, 0, 0, 1, 0, 0)" filter="url(#Rectangle_79)">
      <g id="Rectangle_79-2" data-name="Rectangle 79" transform="translate(1259 98)" fill="rgba(223,223,223,0)" stroke="rgba(223,223,223,0.2)" stroke-width="1">
        <rect width="70" height="102" rx="14" stroke="none"/>
        <rect x="0.5" y="0.5" width="69" height="101" rx="13.5" fill="none"/>
      </g>
    </g>
    <rect id="Rectangle_57" data-name="Rectangle 57" width="10" height="113" rx="5" transform="translate(29 535) rotate(-90)" fill="#ea2424"/>
    <rect id="Rectangle_68" data-name="Rectangle 68" width="10" height="108.5" rx="5" transform="translate(383 199.5) rotate(180)" fill="#ea2424"/>
    <rect id="Rectangle_81" data-name="Rectangle 81" width="10" height="130" rx="5" transform="translate(152 822) rotate(180)" fill="#ea2424"/>
    <rect id="Rectangle_82" data-name="Rectangle 82" width="10" height="130" rx="5" transform="translate(423 822) rotate(180)" fill="#ea2424"/>
    <rect id="Rectangle_91" data-name="Rectangle 91" width="10" height="202.25" rx="5" transform="translate(604 611.25) rotate(90)" fill="#ea2424"/>
    <rect id="Rectangle_90" data-name="Rectangle 90" width="10" height="323" rx="5" transform="translate(398 606) rotate(180)" fill="#ea2424"/>
    <rect id="Rectangle_85" data-name="Rectangle 85" width="10" height="130" rx="5" transform="translate(603 822) rotate(180)" fill="#ea2424"/>
    <rect id="Rectangle_86" data-name="Rectangle 86" width="10" height="130" rx="5" transform="translate(783 822) rotate(180)" fill="#ea2424"/>
    <rect id="Rectangle_71" data-name="Rectangle 71" width="10" height="108" rx="5" transform="translate(547 200) rotate(180)" fill="#ea2424"/>
    <rect id="Rectangle_75" data-name="Rectangle 75" width="10" height="108" rx="5" transform="translate(939 200) rotate(180)" fill="#ea2424"/>
    <rect id="Rectangle_78" data-name="Rectangle 78" width="10" height="108" rx="5" transform="translate(1103 200) rotate(180)" fill="#ea2424"/>
    <text id="b1" transform="translate(63 508)" fill="#fff" font-size="18" font-family="RobotoMono-Medium, Roboto Mono" font-weight="500"><tspan x="0" y="0">B1</tspan></text>
    <text id="b4" transform="translate(63 336)" fill="#fff" font-size="18" font-family="RobotoMono-Medium, Roboto Mono" font-weight="500"><tspan x="0" y="0">B4</tspan></text>
    <text id="dj" transform="translate(993 764)" fill="#dfdfdf" font-size="18" font-family="RobotoMono-Medium, Roboto Mono" font-weight="500"><tspan x="0" y="0">DJ</tspan></text>
    <g transform="matrix(1, 0, 0, 1, 0, 0)" filter="url(#bar_b)">
      <path id="bar_b-2" data-name="bar_b" d="M-8705.358,566.507a12,12,0,0,1-12-12V474.068l-23.824-20.233H-8878a14,14,0,0,1-14-14v-43a14,14,0,0,1,14-14h136.817l23.824-20.233V282.835a12,12,0,0,1,12-12h51l22,16.994v56.54l-13,21.838V471.133l13,21.841v56.54l-22,16.994Z" transform="translate(8921.36 -3.67)" fill="#dfdfdf"/>
    </g>
    <text id="b3" transform="translate(233 300)" font-size="18" font-family="RobotoMono-Medium, Roboto Mono" font-weight="500"><tspan x="0" y="0">B3</tspan></text>
    <text id="b2" transform="translate(233 536)" font-size="18" font-family="RobotoMono-Medium, Roboto Mono" font-weight="500"><tspan x="0" y="0">B2</tspan></text>
    <text id="bar_b-3" data-name="bar b" transform="translate(81 422)" font-size="18" font-family="RobotoMono-Medium, Roboto Mono" font-weight="500"><tspan x="0" y="0">BAR B</tspan></text>
    <g transform="matrix(1, 0, 0, 1, 0, 0)" filter="url(#bar_a)">
      <g id="bar_a-2" data-name="bar_a" transform="translate(1390 427)" fill="#dfdfdf" stroke="#dfdfdf" stroke-width="1">
        <rect width="372" height="173" rx="14" stroke="none"/>
        <rect x="0.5" y="0.5" width="371" height="172" rx="13.5" fill="none"/>
      </g>
    </g>
    <path id="Path_16" data-name="Path 16" d="M4981,393h456V529.555" transform="translate(-4189 -131)" fill="none" stroke="rgba(223,223,223,0.2)" stroke-width="1"/>
    <path id="Path_19" data-name="Path 19" d="M4981,501.912h276V23.774H4753v-45.39h535.067" transform="translate(-3366 231.088)" fill="none" stroke="rgba(223,223,223,0.2)" stroke-width="1"/>
    <line id="Line_8" data-name="Line 8" x2="173" transform="translate(705.5 633)" fill="none" stroke="rgba(223,223,223,0.2)" stroke-width="1"/>
    <g id="Group_32" data-name="Group 32" transform="translate(0 -131)">
      <g transform="matrix(1, 0, 0, 1, 0, 131)" filter="url(#Rectangle_94)">
        <g id="Rectangle_94-2" data-name="Rectangle 94" transform="translate(513 259)" fill="rgba(223,223,223,0)" stroke="rgba(223,223,223,0.2)" stroke-width="1">
          <rect width="137" height="134" stroke="none"/>
          <rect x="0.5" y="0.5" width="136" height="133" fill="none"/>
        </g>
      </g>
      <line id="Line_9" data-name="Line 9" y1="133.503" transform="translate(534 390.249)" fill="none" stroke="rgba(223,223,223,0.2)" stroke-width="1"/>
      <line id="Line_10" data-name="Line 10" y1="133.503" transform="translate(554 389.997)" fill="none" stroke="rgba(223,223,223,0.2)" stroke-width="1"/>
      <line id="Line_11" data-name="Line 11" y1="133.503" transform="translate(574 389.997)" fill="none" stroke="rgba(223,223,223,0.2)" stroke-width="1"/>
      <line id="Line_12" data-name="Line 12" y1="133.503" transform="translate(594 389.997)" fill="none" stroke="rgba(223,223,223,0.2)" stroke-width="1"/>
      <line id="Line_13" data-name="Line 13" y1="133.503" transform="translate(614 389.997)" fill="none" stroke="rgba(223,223,223,0.2)" stroke-width="1"/>
      <line id="Line_14" data-name="Line 14" y1="133.503" transform="translate(634 390)" fill="none" stroke="rgba(223,223,223,0.2)" stroke-width="1"/>
    </g>
    <g id="Group_31" data-name="Group 31" transform="translate(1349.5 733.192) rotate(90)">
      <g transform="matrix(0, -1, 1, 0, -733.19, 1349.5)" filter="url(#Rectangle_103)">
        <g id="Rectangle_103-2" data-name="Rectangle 103" transform="translate(1349.5 733.19) rotate(90)" fill="rgba(223,223,223,0)" stroke="rgba(223,223,223,0.2)" stroke-width="1">
          <rect width="88.808" height="89" stroke="none"/>
          <rect x="0.5" y="0.5" width="87.808" height="88" fill="none"/>
        </g>
      </g>
      <line id="Line_20" data-name="Line 20" y2="88.5" transform="translate(69.482)" fill="none" stroke="rgba(223,223,223,0.2)" stroke-width="1"/>
      <line id="Line_19" data-name="Line 19" y2="88.5" transform="translate(62.23 0.5)" fill="none" stroke="rgba(223,223,223,0.2)" stroke-width="1"/>
      <line id="Line_18" data-name="Line 18" y2="88.5" transform="translate(49.266 0.5)" fill="none" stroke="rgba(223,223,223,0.2)" stroke-width="1"/>
      <line id="Line_15" data-name="Line 15" y2="88.5" transform="translate(36.301 0.5)" fill="none" stroke="rgba(223,223,223,0.2)" stroke-width="1"/>
      <line id="Line_16" data-name="Line 16" y2="88.5" transform="translate(23.336 0.5)" fill="none" stroke="rgba(223,223,223,0.2)" stroke-width="1"/>
      <line id="Line_17" data-name="Line 17" y2="88.5" transform="translate(16 0.497)" fill="none" stroke="rgba(223,223,223,0.2)" stroke-width="1"/>
    </g>
    <text id="bar_a-3" data-name="bar a" transform="translate(1549 521)" font-size="18" font-family="RobotoMono-Medium, Roboto Mono" font-weight="500"><tspan x="0" y="0">BAR A</tspan></text>
    <rect id="Rectangle_101" data-name="Rectangle 101" width="93" height="46" transform="translate(1532 734)" fill="#1d1d1b"/>
    <path id="Path_20" data-name="Path 20" d="M5739.418,865H5550v88.616" transform="translate(-4200.5 -131)" fill="none" stroke="rgba(223,223,223,0.2)" stroke-width="1"/>
    <line id="Line_21" data-name="Line 21" y1="100" transform="translate(1342 142)" fill="none" stroke="#707070" stroke-width="1" stroke-dasharray="10"/>
    <line id="Line_31" data-name="Line 31" x1="79" transform="translate(1294 293)" fill="none" stroke="#707070" stroke-width="1" stroke-dasharray="10"/>
    <line id="Line_30" data-name="Line 30" y1="123" transform="translate(1373 170)" fill="none" stroke="#707070" stroke-width="1" stroke-dasharray="10"/>
    <line id="Line_27" data-name="Line 27" y1="32" transform="translate(1625 110)" fill="none" stroke="#707070" stroke-width="1" stroke-dasharray="10"/>
    <line id="Line_28" data-name="Line 28" y1="69" transform="translate(1650 101)" fill="none" stroke="#707070" stroke-width="1" stroke-dasharray="10"/>
    <line id="Line_26" data-name="Line 26" x1="283" transform="translate(1342 142)" fill="none" stroke="#707070" stroke-width="1" stroke-dasharray="10"/>
    <line id="Line_25" data-name="Line 25" y1="549" transform="translate(1294 242)" fill="none" stroke="#707070" stroke-width="1" stroke-dasharray="10"/>
    <line id="Line_32" data-name="Line 32" y1="208" transform="translate(671 446)" fill="none" stroke="#707070" stroke-width="1" stroke-dasharray="10"/>
    <line id="Line_34" data-name="Line 34" y1="204" transform="translate(741 242)" fill="none" stroke="#707070" stroke-width="1" stroke-dasharray="10"/>
    <line id="Line_33" data-name="Line 33" x1="71" transform="translate(670 446)" fill="none" stroke="#707070" stroke-width="1" stroke-dasharray="10"/>
    <line id="Line_23" data-name="Line 23" y1="412" transform="translate(363 242)" fill="none" stroke="#707070" stroke-width="1" stroke-dasharray="10"/>
    <line id="Line_22" data-name="Line 22" x1="925" transform="translate(363 654)" fill="none" stroke="#707070" stroke-width="1" stroke-dasharray="10"/>
    <line id="Line_24" data-name="Line 24" x1="979" transform="translate(363 242)" fill="none" stroke="#707070" stroke-width="1" stroke-dasharray="10"/>
    <line id="Line_29" data-name="Line 29" x1="272" transform="translate(1378 170)" fill="none" stroke="#707070" stroke-width="1" stroke-dasharray="10"/>
    <path id="Down_Arrow_3_" d="M27,47.636a.634.634,0,0,1-.45-.186l-6.364-6.364a.636.636,0,1,1,.9-.9L27,46.1l5.914-5.914a.636.636,0,0,1,.9.9L27.45,47.45a.634.634,0,0,1-.45.186Z" transform="translate(1321 664.636) rotate(180)" fill="#707070"/>
    <path id="Down_Arrow_3_2" data-name="Down_Arrow_3_" d="M7,0a.634.634,0,0,0-.45.186L.186,6.55a.636.636,0,1,0,.9.9L7,1.536,12.914,7.45a.636.636,0,1,0,.9-.9L7.45.186A.634.634,0,0,0,7,0Z" transform="translate(1153.363 661) rotate(-90)" fill="#707070"/>
    <path id="Down_Arrow_3_3" data-name="Down_Arrow_3_" d="M7,0a.634.634,0,0,0-.45.186L.186,6.55a.636.636,0,1,0,.9.9L7,1.536,12.914,7.45a.636.636,0,1,0,.9-.9L7.45.186A.634.634,0,0,0,7,0Z" transform="translate(634.182 661) rotate(-90)" fill="#707070"/>
    <path id="Down_Arrow_3_4" data-name="Down_Arrow_3_" d="M7,0a.634.634,0,0,0-.45.186L.186,6.55a.636.636,0,1,0,.9.9L7,1.536,12.914,7.45a.636.636,0,1,0,.9-.9L7.45.186A.634.634,0,0,0,7,0Z" transform="translate(356 599.182)" fill="#707070"/>
    <path id="Down_Arrow_3_5" data-name="Down_Arrow_3_" d="M7,0a.634.634,0,0,0-.45.186L.186,6.55a.636.636,0,1,0,.9.9L7,1.536,12.914,7.45a.636.636,0,1,0,.9-.9L7.45.186A.634.634,0,0,0,7,0Z" transform="translate(356 440.364)" fill="#707070"/>
    <path id="Down_Arrow_3_6" data-name="Down_Arrow_3_" d="M7,0a.634.634,0,0,0-.45.186L.186,6.55a.636.636,0,1,0,.9.9L7,1.536,12.914,7.45a.636.636,0,1,0,.9-.9L7.45.186A.634.634,0,0,0,7,0Z" transform="translate(465.818 234.998) rotate(90)" fill="#707070"/>
    <path id="Down_Arrow_3_7" data-name="Down_Arrow_3_" d="M7,0a.634.634,0,0,0-.45.186L.186,6.55a.636.636,0,1,0,.9.9L7,1.536,12.914,7.45a.636.636,0,1,0,.9-.9L7.45.186A.634.634,0,0,0,7,0Z" transform="translate(767.818 235) rotate(90)" fill="#707070"/>
    <path id="Down_Arrow_3_8" data-name="Down_Arrow_3_" d="M7,0a.634.634,0,0,0-.45.186L.186,6.55a.636.636,0,1,0,.9.9L7,1.536,12.914,7.45a.636.636,0,1,0,.9-.9L7.45.186A.634.634,0,0,0,7,0Z" transform="translate(1326.818 235) rotate(90)" fill="#707070"/>
    <path id="Down_Arrow_3_9" data-name="Down_Arrow_3_" d="M7,0a.634.634,0,0,0-.45.186L.186,6.55a.636.636,0,1,0,.9.9L7,1.536,12.914,7.45a.636.636,0,1,0,.9-.9L7.45.186A.634.634,0,0,0,7,0Z" transform="translate(1301 273.818) rotate(180)" fill="#707070"/>
    <path id="Down_Arrow_3_10" data-name="Down_Arrow_3_" d="M7,0a.634.634,0,0,0-.45.186L.186,6.55a.636.636,0,1,0,.9.9L7,1.536,12.914,7.45a.636.636,0,1,0,.9-.9L7.45.186A.634.634,0,0,0,7,0Z" transform="translate(1301 394.454) rotate(180)" fill="#707070"/>
    <path id="Down_Arrow_3_11" data-name="Down_Arrow_3_" d="M7,0a.634.634,0,0,0-.45.186L.186,6.55a.636.636,0,1,0,.9.9L7,1.536,12.914,7.45a.636.636,0,1,0,.9-.9L7.45.186A.634.634,0,0,0,7,0Z" transform="translate(1319.183 300) rotate(-90)" fill="#707070"/>
    <path id="Down_Arrow_3_12" data-name="Down_Arrow_3_" d="M7,0a.634.634,0,0,0-.45.186L.186,6.55a.636.636,0,1,0,.9.9L7,1.536,12.914,7.45a.636.636,0,1,0,.9-.9L7.45.186A.634.634,0,0,0,7,0Z" transform="translate(1380 254.818) rotate(180)" fill="#707070"/>
    <path id="Down_Arrow_3_13" data-name="Down_Arrow_3_" d="M7,0a.634.634,0,0,0-.45.186L.186,6.55a.636.636,0,0,0,.9.9L7,1.536,12.914,7.45a.636.636,0,0,0,.9-.9L7.45.186A.634.634,0,0,0,7,0Z" transform="translate(1516.363 177) rotate(-90)" fill="#707070"/>
    <path id="Down_Arrow_3_14" data-name="Down_Arrow_3_" d="M7,0a.634.634,0,0,0-.45.186L.186,6.55a.636.636,0,0,0,.9.9L7,1.536,12.914,7.45a.636.636,0,0,0,.9-.9L7.45.186A.634.634,0,0,0,7,0Z" transform="translate(1618 102.364)" fill="#707070"/>
    <path id="Down_Arrow_3_15" data-name="Down_Arrow_3_" d="M7,0a.634.634,0,0,0-.45.186L.186,6.55a.636.636,0,1,0,.9.9L7,1.536,12.914,7.45a.636.636,0,1,0,.9-.9L7.45.186A.634.634,0,0,0,7,0Z" transform="translate(664 580.182)" fill="#707070"/>
  </g>
</svg>
